<?xml version="1.0" encoding="UTF-8" standalone="no"?>
<!DOCTYPE svg PUBLIC "-//W3C//DTD SVG 1.1//EN"
 "http://www.w3.org/Graphics/SVG/1.1/DTD/svg11.dtd">
<!-- Generated by graphviz version 2.43.0 (0)
 -->
<!-- Title: %3 Pages: 1 -->
<svg width="398pt" height="994pt"
 viewBox="0.00 0.00 398.00 993.78" xmlns="http://www.w3.org/2000/svg" xmlns:xlink="http://www.w3.org/1999/xlink">
<g id="graph0" class="graph" transform="scale(1 1) rotate(0) translate(4 989.78)">
<title>%3</title>
<polygon fill="white" stroke="transparent" points="-4,4 -4,-989.78 394,-989.78 394,4 -4,4"/>
<!-- 7 -->
<g id="node1" class="node">
<title>7</title>
<ellipse fill="lightskyblue" stroke="black" cx="168" cy="-133.64" rx="133.79" ry="133.79"/>
<text text-anchor="middle" x="168" y="-139.64" font-family="Times,serif" font-size="20.00">id: 7</text>
<text text-anchor="middle" x="168" y="-117.64" font-family="Times,serif" font-size="20.00">Operation: Mean</text>
</g>
<!-- 6 -->
<g id="node2" class="node">
<title>6</title>
<ellipse fill="lightskyblue" stroke="black" cx="168" cy="-424.91" rx="121.74" ry="121.74"/>
<text text-anchor="middle" x="168" y="-430.91" font-family="Times,serif" font-size="20.00">id: 6</text>
<text text-anchor="middle" x="168" y="-408.91" font-family="Times,serif" font-size="20.00">Operation: Add</text>
</g>
<!-- 6&#45;&gt;7 -->
<g id="edge1" class="edge">
<title>6&#45;&gt;7</title>
<path fill="none" stroke="black" d="M168,-302.91C168,-294.45 168,-285.89 168,-277.33"/>
<polygon fill="black" stroke="black" points="171.5,-277.29 168,-267.29 164.5,-277.29 171.5,-277.29"/>
</g>
<!-- 5 -->
<g id="node3" class="node">
<title>5</title>
<ellipse fill="lightskyblue" stroke="black" cx="243" cy="-704.15" rx="121.74" ry="121.74"/>
<text text-anchor="middle" x="243" y="-710.15" font-family="Times,serif" font-size="20.00">id: 5</text>
<text text-anchor="middle" x="243" y="-688.15" font-family="Times,serif" font-size="20.00">Operation: Mul</text>
</g>
<!-- 5&#45;&gt;6 -->
<g id="edge2" class="edge">
<title>5&#45;&gt;6</title>
<path fill="none" stroke="black" d="M211.41,-586.38C208.38,-575.16 205.29,-563.75 202.23,-552.45"/>
<polygon fill="black" stroke="black" points="205.54,-551.29 199.55,-542.55 198.79,-553.11 205.54,-551.29"/>
</g>
<!-- 0 -->
<g id="node4" class="node">
<title>0</title>
<polygon fill="lightskyblue" stroke="black" points="186,-913.78 0,-913.78 0,-861.78 186,-861.78 186,-913.78"/>
<text text-anchor="middle" x="93" y="-893.78" font-family="Times,serif" font-size="20.00">id: 0</text>
<text text-anchor="middle" x="93" y="-871.78" font-family="Times,serif" font-size="20.00">Operation: None</text>
</g>
<!-- 0&#45;&gt;6 -->
<g id="edge3" class="edge">
<title>0&#45;&gt;6</title>
<path fill="none" stroke="black" d="M92.21,-861.62C91.07,-809.13 91.05,-684.39 112,-582.53 114.34,-571.15 117.33,-559.48 120.7,-547.89"/>
<polygon fill="black" stroke="black" points="124.1,-548.76 123.62,-538.18 117.39,-546.75 124.1,-548.76"/>
</g>
<!-- 0&#45;&gt;5 -->
<g id="edge4" class="edge">
<title>0&#45;&gt;5</title>
<path fill="none" stroke="black" d="M113.86,-861.52C126.06,-846.74 142.37,-827 159.27,-806.54"/>
<polygon fill="black" stroke="black" points="162.1,-808.61 165.77,-798.67 156.7,-804.15 162.1,-808.61"/>
</g>
<!-- 1 -->
<g id="node5" class="node">
<title>1</title>
<polygon fill="lightskyblue" stroke="black" points="390,-913.78 204,-913.78 204,-861.78 390,-861.78 390,-913.78"/>
<text text-anchor="middle" x="297" y="-893.78" font-family="Times,serif" font-size="20.00">id: 1</text>
<text text-anchor="middle" x="297" y="-871.78" font-family="Times,serif" font-size="20.00">Operation: None</text>
</g>
<!-- 1&#45;&gt;5 -->
<g id="edge5" class="edge">
<title>1&#45;&gt;5</title>
<path fill="none" stroke="black" d="M289.49,-861.52C286.89,-852.76 283.77,-842.27 280.39,-830.91"/>
<polygon fill="black" stroke="black" points="283.7,-829.77 277.5,-821.18 276.99,-831.76 283.7,-829.77"/>
</g>
<!-- None -->
<g id="node6" class="node">
<title>None</title>
<ellipse fill="none" stroke="black" cx="195" cy="-967.78" rx="35.19" ry="18"/>
<text text-anchor="middle" x="195" y="-964.08" font-family="Times,serif" font-size="14.00">None</text>
</g>
<!-- None&#45;&gt;0 -->
<g id="edge7" class="edge">
<title>None&#45;&gt;0</title>
<path fill="none" stroke="black" d="M176.29,-952.47C164.45,-943.41 148.67,-931.34 134.02,-920.15"/>
<polygon fill="black" stroke="black" points="136.11,-917.33 126.04,-914.04 131.85,-922.89 136.11,-917.33"/>
</g>
<!-- None&#45;&gt;1 -->
<g id="edge6" class="edge">
<title>None&#45;&gt;1</title>
<path fill="none" stroke="black" d="M213.71,-952.47C225.55,-943.41 241.33,-931.34 255.98,-920.15"/>
<polygon fill="black" stroke="black" points="258.15,-922.89 263.96,-914.04 253.89,-917.33 258.15,-922.89"/>
</g>
</g>
</svg>
